<svg width="136" height="75" fill="none" xmlns="http://www.w3.org/2000/svg">
    <path d="m.816 33.712 1.056-.384c.672-.288 1.152-.672 1.44-1.152.288-.48.48-1.344.576-2.592.128-1.28.192-3.36.192-6.24V11.056c0-2.88-.064-4.944-.192-6.192-.096-1.28-.288-2.16-.576-2.64s-.768-.864-1.44-1.152L.816.688V.4h15.84c3.616 0 6.736.656 9.36 1.968 2.624 1.28 4.624 3.136 6 5.568 1.376 2.432 2.064 5.328 2.064 8.688 0 3.328-.704 6.32-2.112 8.976-1.408 2.624-3.472 4.688-6.192 6.192-2.688 1.472-5.888 2.208-9.6 2.208H.816v-.288Zm15.216-.672c1.824 0 3.44-.608 4.848-1.824 1.44-1.248 2.56-3.072 3.36-5.472.832-2.4 1.248-5.28 1.248-8.64 0-4.576-.944-8.352-2.832-11.328C20.8 2.8 17.888 1.312 13.92 1.312c-.48 0-1.088.048-1.824.144-.224.672-.336 4.064-.336 10.176v11.184c0 3.264.064 5.552.192 6.864.128 1.28.448 2.16.96 2.64s1.392.72 2.64.72h.48Zm30.155-7.344c0 2.112.16 3.664.48 4.656.32.992.784 1.68 1.392 2.064.64.352 1.696.72 3.168 1.104l.816.192V34h-15.84v-.288l1.104-.432c.64-.256 1.088-.544 1.344-.864.256-.352.432-.992.528-1.92.128-.96.192-2.56.192-4.8v-3.888c0-1.6-.08-2.816-.24-3.648-.16-.864-.416-1.504-.768-1.92-.32-.416-.784-.72-1.392-.912l-.528-.144v-.336l9.456-4.464h.192v6.096h.192c1.536-2.048 2.976-3.568 4.32-4.56 1.376-1.024 2.592-1.536 3.648-1.536h.288v7.008h-.144c-1.76-.384-3.408-.576-4.944-.576-1.312 0-2.4.144-3.264.432v8.448Zm20.946 8.976c-3.744 0-6.56-.96-8.448-2.88-1.856-1.92-2.784-4.768-2.784-8.544 0-2.432.528-4.608 1.584-6.528 1.056-1.952 2.496-3.472 4.32-4.56a11.494 11.494 0 0 1 6.048-1.68c7.52 0 11.28 3.76 11.28 11.28 0 2.464-.544 4.688-1.632 6.672-1.056 1.952-2.496 3.488-4.32 4.608-1.824 1.088-3.84 1.632-6.048 1.632Zm1.248-1.2c1.184 0 2.048-.72 2.592-2.16.544-1.44.816-3.648.816-6.624 0-3.968-.448-7.12-1.344-9.456-.896-2.336-2.144-3.504-3.744-3.504-1.184 0-2.064.72-2.64 2.16-.544 1.44-.816 3.632-.816 6.576 0 3.904.464 7.056 1.392 9.456.928 2.368 2.176 3.552 3.744 3.552Zm21.517.384c0 2.112.16 3.664.48 4.656.32.992.8 1.664 1.44 2.016.64.384 1.696.768 3.168 1.152l.768.192v.288h-15.84v-.288l1.104-.432c.64-.256 1.088-.56 1.344-.912.288-.32.48-.96.576-1.92.128-.96.192-2.544.192-4.752v-11.28c0-1.792-.08-3.168-.24-4.128-.128-.992-.368-1.712-.72-2.16-.32-.448-.8-.768-1.44-.96l-.528-.144v-.288l9.456-4.512h.192v5.04h.24c1.568-1.792 2.992-3.072 4.272-3.84 1.28-.8 2.64-1.2 4.08-1.2 2.08 0 3.792.88 5.136 2.64 1.376 1.76 2.064 4.416 2.064 7.968 0 2.752-.528 5.168-1.584 7.248-1.024 2.048-2.432 3.632-4.224 4.752-1.76 1.12-3.712 1.68-5.856 1.68-.896 0-1.648-.064-2.256-.192a9.487 9.487 0 0 1-1.824-.624Zm4.32-.336c1.28 0 2.352-.736 3.216-2.208.864-1.472 1.296-3.696 1.296-6.672 0-3.36-.496-5.712-1.488-7.056-.992-1.376-2.352-2.064-4.08-2.064-.992 0-2.08.192-3.264.576v9.312c0 2.72.4 4.752 1.2 6.096.832 1.344 1.872 2.016 3.12 2.016ZM27.456 66.416c1.792 1.504 3.264 2.624 4.416 3.36 1.152.736 2.16 1.216 3.024 1.44.864.224 1.872.352 3.024.384v.24c-1.344 1.952-3.408 2.928-6.192 2.928-1.6 0-3.168-.256-4.704-.768-1.504-.544-3.104-1.456-4.8-2.736-3.232 2.304-6.608 3.456-10.128 3.456-1.792 0-3.536-.304-5.232-.912-1.664-.64-3.04-1.584-4.128-2.832-1.088-1.28-1.632-2.8-1.632-4.56 0-2.208.8-4.016 2.4-5.424 1.6-1.408 3.68-2.336 6.24-2.784-2.08-3.232-3.12-6.272-3.12-9.12 0-2.048.528-3.776 1.584-5.184 1.088-1.408 2.432-2.448 4.032-3.12 1.632-.704 3.28-1.056 4.944-1.056 1.856 0 3.44.32 4.752.96 1.312.64 2.288 1.488 2.928 2.544.64 1.024.96 2.128.96 3.312 0 2.208-.944 4.032-2.832 5.472-1.856 1.44-4.128 2.416-6.816 2.928a19.806 19.806 0 0 0 2.304 3.216c.928.992 2 2.048 3.216 3.168l4.176 3.744c.576-1.504.864-2.96.864-4.368 0-.736-.208-1.344-.624-1.824-.416-.48-1.104-.896-2.064-1.248s-2.336-.72-4.128-1.104v-.384h13.824v.384c-1.728 3.712-3.824 7.008-6.288 9.888ZM16.752 41.072c-.864 0-1.552.368-2.064 1.104-.512.736-.768 2-.768 3.792 0 3.328.704 6.224 2.112 8.688 1.312-.928 2.272-2.112 2.88-3.552.608-1.472.912-3.28.912-5.424 0-1.536-.272-2.688-.816-3.456-.512-.768-1.264-1.152-2.256-1.152Zm-.384 31.536c1.888 0 3.648-.576 5.28-1.728a51.43 51.43 0 0 1-4.368-3.84c-3.136-3.04-5.552-5.824-7.248-8.352-.32.576-.576 1.36-.768 2.352-.192.96-.288 1.936-.288 2.928 0 5.76 2.464 8.64 7.392 8.64Zm57.103-31.536c-.736.32-1.264.784-1.584 1.392-.32.608-.544 1.632-.672 3.072-.128 1.44-.192 3.744-.192 6.912v9.504c0 3.136.064 5.44.192 6.912.128 1.44.352 2.464.672 3.072.32.576.848 1.04 1.584 1.392l.96.384V74H59.935v-.288l1.008-.384c.704-.32 1.216-.784 1.536-1.392.352-.608.592-1.632.72-3.072.128-1.472.192-3.776.192-6.912v-4.8c-5.76-.192-10.016-.304-12.768-.336v5.136c0 3.136.064 5.44.192 6.912.128 1.44.352 2.464.672 3.072.32.576.848 1.04 1.584 1.392l1.008.384V74H39.535v-.288l1.008-.384c.736-.32 1.264-.784 1.584-1.392.32-.608.544-1.632.672-3.072.128-1.44.192-3.744.192-6.912v-9.504c0-3.136-.064-5.424-.192-6.864-.128-1.472-.352-2.496-.672-3.072-.32-.608-.848-1.088-1.584-1.44l-1.008-.384V40.4h14.544v.288l-1.008.384c-.704.32-1.232.784-1.584 1.392-.32.608-.544 1.648-.672 3.12-.128 1.44-.192 3.728-.192 6.864v3.504c2.752-.032 7.008-.144 12.768-.336v-3.168c0-3.136-.064-5.424-.192-6.864-.128-1.472-.352-2.496-.672-3.072-.32-.608-.848-1.088-1.584-1.44l-1.008-.384V40.4H74.43v.288l-.96.384Zm22.738 21.264c0 8.224-3.248 12.336-9.744 12.336-1.76 0-3.408-.4-4.944-1.2-1.536-.832-2.784-2.064-3.744-3.696-.928-1.664-1.392-3.68-1.392-6.048 0-2.912.608-5.376 1.824-7.392 1.248-2.016 2.736-3.504 4.464-4.464 1.728-.992 3.312-1.488 4.752-1.488 2.56 0 4.64.848 6.24 2.544 1.632 1.664 2.448 4 2.448 7.008l-.576.624-12.288-.384c.096 3.104.72 5.44 1.872 7.008 1.184 1.536 2.736 2.304 4.656 2.304 1.568 0 2.944-.576 4.128-1.728 1.184-1.184 1.856-3.008 2.016-5.472l.288.048Zm-9.264-10.704c-1.12 0-2.016.672-2.688 2.016-.672 1.312-1.008 3.216-1.008 5.712l6.144-.192c.16-.8.24-1.648.24-2.544 0-1.408-.224-2.592-.672-3.552-.416-.96-1.088-1.44-2.016-1.44Zm16.844 23.136c-1.408 0-2.576-.496-3.504-1.488-.896-.992-1.344-2.224-1.344-3.696 0-2.048.816-3.616 2.448-4.704 1.664-1.088 4.272-1.952 7.824-2.592l2.064-.336v-5.136c0-1.92-.32-3.248-.96-3.984-.64-.736-1.392-1.104-2.256-1.104-.64 0-1.152.24-1.536.72-.352.48-.528 1.344-.528 2.592 0 1.344.224 3.072.672 5.184l-7.008 1.104c.192-2.72.912-4.896 2.16-6.528 1.248-1.632 2.72-2.768 4.416-3.408 1.728-.672 3.44-1.008 5.136-1.008 2.56 0 4.32.56 5.28 1.68.992 1.088 1.488 2.816 1.488 5.184a163.5 163.5 0 0 1-.096 4.8 166.58 166.58 0 0 0-.096 4.992c0 1.056.112 1.792.336 2.208.224.384.592.576 1.104.576.704 0 1.168-.336 1.392-1.008.256-.672.368-1.968.336-3.888h.528c.064 3.136-.336 5.52-1.2 7.152-.864 1.632-2.32 2.448-4.368 2.448-1.504 0-2.688-.416-3.552-1.248-.864-.864-1.216-2.288-1.056-4.272h-.192c-1.152 1.888-2.32 3.328-3.504 4.32-1.184.96-2.512 1.44-3.984 1.44Zm3.888-5.28c.576 0 1.12-.08 1.632-.24.544-.192 1.2-.464 1.968-.816v-6.048l-1.776.624c-1.728.576-2.896 1.168-3.504 1.776a3.035 3.035 0 0 0-.864 2.16c0 .8.224 1.424.672 1.872.48.448 1.104.672 1.872.672Zm18.125-18.624c0-1.92-.08-3.376-.24-4.368-.16-1.024-.416-1.744-.768-2.16-.32-.448-.784-.768-1.392-.96l-.528-.192v-.288l9.648-4.176h.192c-.064.928-.112 2.928-.144 6v20.496c0 2.24.048 3.888.144 4.944.128 1.024.336 1.744.624 2.16.288.416.736.752 1.344 1.008l.912.384V74h-12.816v-.288l.912-.384c.608-.256 1.056-.592 1.344-1.008.288-.416.48-1.136.576-2.16.128-1.056.192-2.704.192-4.944V50.864Z" fill="#F5F5F5"/>
</svg>
