<?xml version="1.0" standalone="no"?>
<!DOCTYPE svg PUBLIC "-//W3C//DTD SVG 20010904//EN"
 "http://www.w3.org/TR/2001/REC-SVG-20010904/DTD/svg10.dtd">
<svg version="1.0" xmlns="http://www.w3.org/2000/svg"
 width="1186.000000pt" height="917.000000pt" viewBox="0 0 1186.000000 917.000000"
 preserveAspectRatio="xMidYMid meet">

<g transform="translate(0.000000,917.000000) scale(0.100000,-0.100000)"
fill="#000000" stroke="none">
<path d="M56 9154 c-4 -10 -9 -51 -13 -93 -3 -42 -10 -81 -15 -87 -16 -21 -26
-487 -15 -669 6 -93 13 -172 17 -175 4 -3 18 -83 33 -179 15 -95 31 -178 36
-185 5 -6 21 -60 37 -121 15 -60 30 -112 33 -115 4 -3 15 -30 25 -60 11 -30
32 -80 47 -110 15 -30 37 -83 49 -117 13 -35 27 -63 31 -63 5 0 9 -6 9 -14 0
-16 51 -119 61 -124 4 -2 19 -28 35 -59 15 -31 33 -63 41 -72 25 -29 103 -151
103 -161 0 -6 4 -10 10 -10 5 0 24 -21 42 -47 69 -102 178 -228 315 -366 122
-123 212 -207 222 -207 4 0 18 -11 31 -25 29 -31 245 -195 257 -195 4 0 20
-11 35 -25 15 -14 30 -25 33 -25 3 0 36 -19 73 -42 86 -55 114 -71 182 -104
175 -87 284 -135 350 -155 41 -13 77 -26 80 -29 10 -10 106 -39 153 -46 26 -3
47 -10 47 -13 0 -11 209 -49 308 -57 45 -4 85 -11 88 -15 7 -12 404 -12 404 0
0 4 42 11 93 15 102 7 321 42 352 56 19 9 122 37 175 48 14 2 30 8 35 12 30
22 156 50 275 60 151 13 384 57 504 95 103 32 220 78 224 87 2 5 8 8 14 8 6 0
73 31 149 69 159 80 332 196 621 413 333 251 414 302 688 431 127 59 287 109
430 133 60 10 184 6 188 -6 2 -6 14 -10 27 -10 34 0 212 -38 232 -50 10 -5 47
-19 83 -30 94 -30 223 -95 312 -157 43 -29 81 -53 85 -53 8 0 20 -12 158 -147
50 -48 95 -95 100 -104 6 -9 36 -50 68 -92 31 -42 62 -88 67 -103 6 -15 20
-40 31 -56 19 -26 52 -101 66 -153 4 -11 9 -22 13 -25 10 -7 37 -95 50 -165 7
-33 16 -64 20 -70 14 -18 30 -187 30 -324 0 -143 -17 -311 -31 -311 -5 0 -9
-8 -9 -19 0 -30 -40 -184 -56 -211 -7 -14 -27 -54 -43 -90 -61 -132 -161 -279
-246 -362 -80 -77 -272 -180 -515 -277 -85 -34 -164 -66 -174 -72 -56 -32
-462 -150 -681 -199 -77 -17 -148 -35 -157 -40 -21 -12 -384 -80 -608 -115
-186 -29 -663 -90 -785 -101 -44 -4 -82 -10 -85 -14 -3 -3 -104 -16 -225 -29
-309 -31 -509 -59 -588 -82 -57 -17 -76 -29 -123 -77 -74 -75 -109 -148 -106
-224 2 -49 0 -58 -15 -58 -50 0 -331 -32 -348 -40 -11 -5 -65 -14 -120 -20
-112 -12 -162 -24 -220 -52 -70 -34 -84 -44 -113 -84 -16 -21 -36 -45 -45 -53
-9 -7 -22 -32 -28 -55 -6 -22 -18 -56 -26 -74 -12 -25 -13 -36 -4 -45 6 -6 11
-25 11 -43 0 -34 46 -144 60 -144 4 0 12 -13 18 -28 5 -16 31 -59 56 -96 25
-37 46 -73 46 -81 0 -7 4 -15 9 -17 17 -7 113 -130 123 -159 6 -16 13 -28 15
-25 5 5 103 -93 103 -103 0 -11 318 -331 328 -331 6 0 26 -18 45 -40 19 -22
38 -40 44 -40 5 0 19 -13 31 -30 13 -16 29 -30 37 -30 7 0 23 -14 35 -30 12
-17 30 -30 40 -30 10 0 27 -15 39 -35 13 -22 28 -35 41 -35 11 0 20 -7 20 -15
0 -8 7 -15 15 -15 8 0 15 -4 15 -10 0 -5 11 -12 25 -16 13 -3 27 -15 30 -25 4
-10 15 -19 25 -19 10 0 20 -7 24 -15 3 -8 11 -15 18 -15 7 0 19 -9 26 -20 7
-11 19 -20 27 -20 8 0 15 -5 15 -10 0 -6 12 -16 28 -22 15 -7 34 -21 43 -30 9
-10 24 -18 33 -18 9 0 16 -4 16 -10 0 -5 6 -10 14 -10 7 0 16 -9 19 -20 3 -12
14 -20 26 -20 12 0 21 -4 21 -10 0 -5 7 -10 15 -10 8 0 15 -4 15 -10 0 -5 7
-10 15 -10 9 0 18 -6 21 -14 3 -8 19 -18 35 -21 16 -4 29 -11 29 -16 0 -5 7
-9 15 -9 8 0 24 -9 34 -19 10 -10 28 -22 40 -26 12 -3 21 -11 21 -16 0 -5 6
-9 13 -9 7 0 22 -8 33 -18 11 -10 32 -22 47 -26 15 -3 27 -11 27 -16 0 -6 6
-10 14 -10 8 0 16 -7 20 -15 3 -8 14 -15 24 -15 10 0 29 -9 42 -20 13 -11 29
-20 37 -20 7 0 13 -4 13 -10 0 -5 15 -13 32 -19 59 -18 119 -41 141 -55 12 -8
39 -19 60 -26 20 -6 43 -17 50 -24 6 -7 59 -25 117 -40 58 -15 109 -31 115
-35 19 -14 141 -51 182 -55 22 -2 51 -11 64 -19 13 -8 68 -22 122 -32 54 -9
104 -23 112 -31 9 -10 52 -18 120 -24 127 -11 219 -27 260 -45 39 -17 90 -24
254 -30 73 -3 142 -10 152 -15 10 -6 43 -10 73 -10 31 0 56 -4 56 -10 0 -5 20
-10 45 -10 25 0 45 5 45 10 0 15 163 13 179 -2 9 -10 60 -13 183 -13 128 0
172 3 176 13 4 14 82 17 82 2 0 -6 30 -10 70 -10 40 0 70 4 70 10 0 6 40 10
99 10 55 0 102 4 105 9 3 4 52 11 108 15 136 9 201 16 213 26 6 4 48 11 95 14
99 8 316 43 345 55 27 12 174 41 205 41 24 0 91 20 100 31 3 3 64 18 135 34
72 15 139 34 150 41 11 8 28 14 39 14 40 0 166 35 166 46 0 6 33 19 72 29 40
9 91 25 113 35 23 10 54 22 70 25 47 11 119 36 130 45 5 4 34 15 64 24 30 9
73 27 95 40 23 13 71 34 106 46 36 12 67 25 70 28 3 4 40 25 83 46 81 41 100
61 25 28 -62 -28 -148 -55 -155 -49 -3 4 8 9 23 13 16 4 36 12 44 19 8 6 38
20 65 30 44 16 75 29 175 74 14 6 39 20 55 31 17 11 49 29 72 40 23 12 46 26
50 33 4 8 36 24 71 37 35 13 69 28 75 34 7 6 36 22 65 35 28 14 52 28 52 31 0
4 21 15 48 24 62 23 94 38 110 54 7 6 19 12 26 12 7 0 33 15 57 32 77 57 110
78 119 78 6 0 10 4 10 9 0 5 15 15 34 21 19 6 40 18 48 27 7 9 37 27 65 39 29
13 63 34 75 46 12 12 43 36 68 53 25 17 54 38 65 47 46 38 116 88 123 88 5 0
18 13 30 30 12 16 34 33 47 36 l25 6 0 3694 0 3694 -5899 0 c-5469 0 -5899 -1
-5905 -16z m10082 -8368 c-7 -8 -15 -12 -17 -11 -5 6 10 25 20 25 5 0 4 -6 -3
-14z"/>
<path d="M10395 880 c-13 -6 -15 -9 -5 -9 8 0 22 4 30 9 18 12 2 12 -25 0z"/>
</g>
</svg>
