<svg width="211" height="114" viewBox="0 0 211 114" fill="none" xmlns="http://www.w3.org/2000/svg">
<path d="M0.275 52.55L1.925 51.95C2.975 51.5 3.725 50.9 4.175 50.15C4.625 49.4 4.925 48.05 5.075 46.1C5.275 44.1 5.375 40.85 5.375 36.35V17.15C5.375 12.65 5.275 9.425 5.075 7.475C4.925 5.475 4.625 4.1 4.175 3.35C3.725 2.6 2.975 2 1.925 1.55L0.275 0.95V0.499996H25.025C30.675 0.499996 35.55 1.525 39.65 3.575C43.75 5.575 46.875 8.475 49.025 12.275C51.175 16.075 52.25 20.6 52.25 25.85C52.25 31.05 51.15 35.725 48.95 39.875C46.75 43.975 43.525 47.2 39.275 49.55C35.075 51.85 30.075 53 24.275 53H0.275V52.55ZM24.05 51.5C26.9 51.5 29.425 50.55 31.625 48.65C33.875 46.7 35.625 43.85 36.875 40.1C38.175 36.35 38.825 31.85 38.825 26.6C38.825 19.45 37.35 13.55 34.4 8.9C31.5 4.25 26.95 1.925 20.75 1.925C20 1.925 19.05 2 17.9 2.15C17.55 3.2 17.375 8.5 17.375 18.05V35.525C17.375 40.625 17.475 44.2 17.675 46.25C17.875 48.25 18.375 49.625 19.175 50.375C19.975 51.125 21.35 51.5 23.3 51.5H24.05ZM71.1676 40.025C71.1676 43.325 71.4176 45.75 71.9176 47.3C72.4176 48.85 73.1426 49.925 74.0926 50.525C75.0926 51.075 76.7426 51.65 79.0426 52.25L80.3176 52.55V53H55.5676V52.55L57.2926 51.875C58.2926 51.475 58.9926 51.025 59.3926 50.525C59.7926 49.975 60.0676 48.975 60.2176 47.525C60.4176 46.025 60.5176 43.525 60.5176 40.025V33.95C60.5176 31.45 60.3926 29.55 60.1426 28.25C59.8926 26.9 59.4926 25.9 58.9426 25.25C58.4426 24.6 57.7176 24.125 56.7676 23.825L55.9426 23.6V23.075L70.7176 16.1H71.0176V25.625H71.3176C73.7176 22.425 75.9676 20.05 78.0676 18.5C80.2176 16.9 82.1176 16.1 83.7676 16.1H84.2176V27.05H83.9926C81.2426 26.45 78.6676 26.15 76.2676 26.15C74.2176 26.15 72.5176 26.375 71.1676 26.825V40.025ZM103.895 54.05C98.0451 54.05 93.6451 52.55 90.6951 49.55C87.7951 46.55 86.3451 42.1 86.3451 36.2C86.3451 32.4 87.1701 29 88.8201 26C90.4701 22.95 92.7201 20.575 95.5701 18.875C98.4701 17.125 101.62 16.25 105.02 16.25C116.77 16.25 122.645 22.125 122.645 33.875C122.645 37.725 121.795 41.2 120.095 44.3C118.445 47.35 116.195 49.75 113.345 51.5C110.495 53.2 107.345 54.05 103.895 54.05ZM105.845 52.175C107.695 52.175 109.045 51.05 109.895 48.8C110.745 46.55 111.17 43.1 111.17 38.45C111.17 32.25 110.47 27.325 109.07 23.675C107.67 20.025 105.72 18.2 103.22 18.2C101.37 18.2 99.9951 19.325 99.0951 21.575C98.2451 23.825 97.8201 27.25 97.8201 31.85C97.8201 37.95 98.5451 42.875 99.9951 46.625C101.445 50.325 103.395 52.175 105.845 52.175ZM139.466 52.775C139.466 56.075 139.716 58.5 140.216 60.05C140.716 61.6 141.466 62.65 142.466 63.2C143.466 63.8 145.116 64.4 147.416 65L148.616 65.3V65.75H123.866V65.3L125.591 64.625C126.591 64.225 127.291 63.75 127.691 63.2C128.141 62.7 128.441 61.7 128.591 60.2C128.791 58.7 128.891 56.225 128.891 52.775V35.15C128.891 32.35 128.766 30.2 128.516 28.7C128.316 27.15 127.941 26.025 127.391 25.325C126.891 24.625 126.141 24.125 125.141 23.825L124.316 23.6V23.15L139.091 16.1H139.391V23.975H139.766C142.216 21.175 144.441 19.175 146.441 17.975C148.441 16.725 150.566 16.1 152.816 16.1C156.066 16.1 158.741 17.475 160.841 20.225C162.991 22.975 164.066 27.125 164.066 32.675C164.066 36.975 163.241 40.75 161.591 44C159.991 47.2 157.791 49.675 154.991 51.425C152.241 53.175 149.191 54.05 145.841 54.05C144.441 54.05 143.266 53.95 142.316 53.75C141.416 53.55 140.466 53.225 139.466 52.775ZM146.216 52.25C148.216 52.25 149.891 51.1 151.241 48.8C152.591 46.5 153.266 43.025 153.266 38.375C153.266 33.125 152.491 29.45 150.941 27.35C149.391 25.2 147.266 24.125 144.566 24.125C143.016 24.125 141.316 24.425 139.466 25.025V39.575C139.466 43.825 140.091 47 141.341 49.1C142.641 51.2 144.266 52.25 146.216 52.25ZM41.9 100.15C44.7 102.5 47 104.25 48.8 105.4C50.6 106.55 52.175 107.3 53.525 107.65C54.875 108 56.45 108.2 58.25 108.25V108.625C56.15 111.675 52.925 113.2 48.575 113.2C46.075 113.2 43.625 112.8 41.225 112C38.875 111.15 36.375 109.725 33.725 107.725C28.675 111.325 23.4 113.125 17.9 113.125C15.1 113.125 12.375 112.65 9.725 111.7C7.125 110.7 4.975 109.225 3.275 107.275C1.575 105.275 0.725 102.9 0.725 100.15C0.725 96.7 1.975 93.875 4.475 91.675C6.975 89.475 10.225 88.025 14.225 87.325C10.975 82.275 9.35 77.525 9.35 73.075C9.35 69.875 10.175 67.175 11.825 64.975C13.525 62.775 15.625 61.15 18.125 60.1C20.675 59 23.25 58.45 25.85 58.45C28.75 58.45 31.225 58.95 33.275 59.95C35.325 60.95 36.85 62.275 37.85 63.925C38.85 65.525 39.35 67.25 39.35 69.1C39.35 72.55 37.875 75.4 34.925 77.65C32.025 79.9 28.475 81.425 24.275 82.225C25.275 83.975 26.475 85.65 27.875 87.25C29.325 88.8 31 90.45 32.9 92.2L39.425 98.05C40.325 95.7 40.775 93.425 40.775 91.225C40.775 90.075 40.45 89.125 39.8 88.375C39.15 87.625 38.075 86.975 36.575 86.425C35.075 85.875 32.925 85.3 30.125 84.7V84.1H51.725V84.7C49.025 90.5 45.75 95.65 41.9 100.15ZM25.175 60.55C23.825 60.55 22.75 61.125 21.95 62.275C21.15 63.425 20.75 65.4 20.75 68.2C20.75 73.4 21.85 77.925 24.05 81.775C26.1 80.325 27.6 78.475 28.55 76.225C29.5 73.925 29.975 71.1 29.975 67.75C29.975 65.35 29.55 63.55 28.7 62.35C27.9 61.15 26.725 60.55 25.175 60.55ZM24.575 109.825C27.525 109.825 30.275 108.925 32.825 107.125C30.575 105.375 28.3 103.375 26 101.125C21.1 96.375 17.325 92.025 14.675 88.075C14.175 88.975 13.775 90.2 13.475 91.75C13.175 93.25 13.025 94.775 13.025 96.325C13.025 105.325 16.875 109.825 24.575 109.825ZM113.798 60.55C112.648 61.05 111.823 61.775 111.323 62.725C110.823 63.675 110.473 65.275 110.273 67.525C110.073 69.775 109.973 73.375 109.973 78.325V93.175C109.973 98.075 110.073 101.675 110.273 103.975C110.473 106.225 110.823 107.825 111.323 108.775C111.823 109.675 112.648 110.4 113.798 110.95L115.298 111.55V112H92.648V111.55L94.223 110.95C95.323 110.45 96.123 109.725 96.623 108.775C97.173 107.825 97.5481 106.225 97.7481 103.975C97.948 101.675 98.048 98.075 98.048 93.175V85.675C89.048 85.375 82.398 85.2 78.098 85.15V93.175C78.098 98.075 78.198 101.675 78.398 103.975C78.598 106.225 78.948 107.825 79.448 108.775C79.948 109.675 80.773 110.4 81.923 110.95L83.498 111.55V112H60.773V111.55L62.348 110.95C63.498 110.45 64.323 109.725 64.823 108.775C65.323 107.825 65.673 106.225 65.873 103.975C66.073 101.725 66.173 98.125 66.173 93.175V78.325C66.173 73.425 66.073 69.85 65.873 67.6C65.673 65.3 65.323 63.7 64.823 62.8C64.323 61.85 63.498 61.1 62.348 60.55L60.773 59.95V59.5H83.498V59.95L81.923 60.55C80.823 61.05 79.998 61.775 79.448 62.725C78.948 63.675 78.598 65.3 78.398 67.6C78.198 69.85 78.098 73.425 78.098 78.325V83.8C82.398 83.75 89.048 83.575 98.048 83.275V78.325C98.048 73.425 97.948 69.85 97.7481 67.6C97.5481 65.3 97.198 63.7 96.698 62.8C96.198 61.85 95.373 61.1 94.223 60.55L92.648 59.95V59.5H115.298V59.95L113.798 60.55ZM149.327 93.775C149.327 106.625 144.252 113.05 134.102 113.05C131.352 113.05 128.777 112.425 126.377 111.175C123.977 109.875 122.027 107.95 120.527 105.4C119.077 102.8 118.352 99.65 118.352 95.95C118.352 91.4 119.302 87.55 121.202 84.4C123.152 81.25 125.477 78.925 128.177 77.425C130.877 75.875 133.352 75.1 135.602 75.1C139.602 75.1 142.852 76.425 145.352 79.075C147.902 81.675 149.177 85.325 149.177 90.025L148.277 91L129.077 90.4C129.227 95.25 130.202 98.9 132.002 101.35C133.852 103.75 136.277 104.95 139.277 104.95C141.727 104.95 143.877 104.05 145.727 102.25C147.577 100.4 148.627 97.55 148.877 93.7L149.327 93.775ZM134.852 77.05C133.102 77.05 131.702 78.1 130.652 80.2C129.602 82.25 129.077 85.225 129.077 89.125L138.677 88.825C138.927 87.575 139.052 86.25 139.052 84.85C139.052 82.65 138.702 80.8 138.002 79.3C137.352 77.8 136.302 77.05 134.852 77.05ZM161.171 113.2C158.971 113.2 157.146 112.425 155.696 110.875C154.296 109.325 153.596 107.4 153.596 105.1C153.596 101.9 154.871 99.45 157.421 97.75C160.021 96.05 164.096 94.7 169.646 93.7L172.871 93.175V85.15C172.871 82.15 172.371 80.075 171.371 78.925C170.371 77.775 169.196 77.2 167.846 77.2C166.846 77.2 166.046 77.575 165.446 78.325C164.896 79.075 164.621 80.425 164.621 82.375C164.621 84.475 164.971 87.175 165.671 90.475L154.721 92.2C155.021 87.95 156.146 84.55 158.096 82C160.046 79.45 162.346 77.675 164.996 76.675C167.696 75.625 170.371 75.1 173.021 75.1C177.021 75.1 179.771 75.975 181.271 77.725C182.821 79.425 183.596 82.125 183.596 85.825C183.596 87.625 183.546 90.125 183.446 93.325C183.346 96.525 183.296 99.125 183.296 101.125C183.296 102.775 183.471 103.925 183.821 104.575C184.171 105.175 184.746 105.475 185.546 105.475C186.646 105.475 187.371 104.95 187.721 103.9C188.121 102.85 188.296 100.825 188.246 97.825H189.071C189.171 102.725 188.546 106.45 187.196 109C185.846 111.55 183.571 112.825 180.371 112.825C178.021 112.825 176.171 112.175 174.821 110.875C173.471 109.525 172.921 107.3 173.171 104.2H172.871C171.071 107.15 169.246 109.4 167.396 110.95C165.546 112.45 163.471 113.2 161.171 113.2ZM167.246 104.95C168.146 104.95 168.996 104.825 169.796 104.575C170.646 104.275 171.671 103.85 172.871 103.3V93.85L170.096 94.825C167.396 95.725 165.571 96.65 164.621 97.6C163.721 98.55 163.271 99.675 163.271 100.975C163.271 102.225 163.621 103.2 164.321 103.9C165.071 104.6 166.046 104.95 167.246 104.95ZM195.566 75.85C195.566 72.85 195.441 70.575 195.191 69.025C194.941 67.425 194.541 66.3 193.991 65.65C193.491 64.95 192.766 64.45 191.816 64.15L190.991 63.85V63.4L206.066 56.875H206.366C206.266 58.325 206.191 61.45 206.141 66.25V74.2V98.275C206.141 101.775 206.216 104.35 206.366 106C206.566 107.6 206.891 108.725 207.341 109.375C207.791 110.025 208.491 110.55 209.441 110.95L210.866 111.55V112H190.841V111.55L192.266 110.95C193.216 110.55 193.916 110.025 194.366 109.375C194.816 108.725 195.116 107.6 195.266 106C195.466 104.35 195.566 101.775 195.566 98.275V75.85Z" fill="#F5F5F5"/>
</svg>
